<svg xmlns="http://www.w3.org/2000/svg" viewBox="0 0 466.48 146.65"><defs><style>.cls-1,.cls-3{fill:#e31f26;}.cls-2{fill:#939598;}.cls-3{fill-rule:evenodd;}</style></defs><title>Asset 1</title><g id="Layer_2" data-name="Layer 2"><g id="Layer_1-2" data-name="Layer 1"><path class="cls-1" d="M209.65,71.94c3.32-5.66,8.81-8.81,15.72-8.9v14c-9-.81-14.92,3.41-15.72,10.24v24.89H194.11V63.76h15.55Z"/><path class="cls-1" d="M363.68,112.19v-5.57c-3.14,4.13-8.26,6.29-14.82,6.29-10.33,0-16.62-6.29-16.62-15.18,0-9.16,6.56-14.56,18.6-14.65h12.76v-.72c0-4.76-3.15-7.64-9.43-7.64-4,0-9.35,1.44-14.47,4l-4.4-10.24C342.83,65,349.66,63,357.75,63c13.3,0,21,6.56,21.12,17.52M363.59,95.75V91.44h-9.8c-4.67,0-7,1.62-7,5.21s2.52,5.75,6.83,5.75c4.85,0,9-2.7,10-6.65"/><path class="cls-1" d="M466.48,80.56V95.72c0,12.52,0,16.47-7.58,16.47H451.3v-5.57c-3.14,4.13-8.27,6.29-14.82,6.29-10.33,0-16.62-6.29-16.62-15.18,0-9.16,6.56-14.56,18.6-14.65h12.76v-.72c0-4.76-3.15-7.64-9.43-7.64-4,0-9.35,1.44-14.47,4l-4.4-10.24C430.45,65,437.28,63,445.37,63c13.3,0,21,6.56,21.11,17.52M451.21,95.75V91.44h-9.79c-4.68,0-7,1.62-7,5.21s2.51,5.75,6.83,5.75c4.85,0,9-2.7,10-6.65"/><path class="cls-1" d="M273.27,80.56V95.72c0,12.52,0,16.47-7.58,16.47h-7.6v-5.57c-3.15,4.13-8.27,6.29-14.83,6.29-10.33,0-16.62-6.29-16.62-15.18,0-9.16,6.56-14.56,18.6-14.65H258v-.72c0-4.76-3.15-7.64-9.43-7.64-4,0-9.35,1.44-14.47,4l-4.4-10.24C237.24,65,244.06,63,252.15,63c13.3,0,21,6.56,21.11,17.52M258,95.75V91.44H248.2c-4.67,0-7,1.62-7,5.21s2.52,5.75,6.83,5.75c4.85,0,9-2.7,10-6.65"/><path class="cls-1" d="M378.87,80.56V95.72c0,12.52,0,16.47-7.58,16.47h-7.61v-5.57c-3.14,4.13-8.26,6.29-14.82,6.29-10.33,0-16.62-6.29-16.62-15.18,0-9.16,6.56-14.56,18.6-14.65h12.76v-.72c0-4.76-3.15-7.64-9.43-7.64-4,0-9.35,1.44-14.47,4l-4.4-10.24C342.83,65,349.66,63,357.75,63c13.3,0,21,6.56,21.12,17.52M363.59,95.75V91.44h-9.8c-4.67,0-7,1.62-7,5.21s2.52,5.75,6.83,5.75c4.85,0,9-2.7,10-6.65"/><path class="cls-1" d="M327.52,108.77c0,13.75-10.6,22.46-26.23,22.46a39.23,39.23,0,0,1-21.56-6.38l5.39-10.51a26.86,26.86,0,0,0,15,4.85c7.46,0,12-4,12-10v-6.1c-3.14,4.13-7.9,6.47-13.93,6.47-12.22,0-20.85-9.35-20.85-23.46,0-13.74,8.35-22.91,20.49-22.91,6.2-.09,11,2.25,14.28,6.47V62.78h7.83c7.45,0,7.62,4.14,7.62,16.46ZM312.07,86.58c0-7.1-4-11.86-10.06-11.86s-10.24,4.85-10.24,11.86S295.89,98.36,302,98.36s10.06-4.86,10.06-11.77"/><path class="cls-1" d="M418.09,109.59a26.4,26.4,0,0,1-12.94,3.32c-9.34,0-16.08-5.3-16.08-15.37V76.16h-6.74V66h6.74V52.53h7.82c6,0,6.94,3.18,7.32,6.92.33,3.22.32,6.47.32,6.47h12.67V76.16H404.52v19c0,3.77,1.61,5.39,4.49,5.3a16.76,16.76,0,0,0,6-1.62Z"/><path class="cls-1" d="M159.66,61.88V76.43h28.21V89H159.66v9.78c0,10.68-.87,13.4-7.89,13.4h-8.11V49.3h36.76c9.13,0,9.87,1.81,9.87,7.62v5Z"/><path class="cls-2" d="M335.87,124.9,332.1,135l-1.33,3.55h0v0l1.93,0,1.4-4,5.45,0,1.37,4h2a0,0,0,0,0,0,0l-5-13.67Zm-.1,8.05h-1.08l2.18-6,1.54,4.51.48,1.44Z"/><path class="cls-2" d="M354.08,124.91v8.63c0,3.24-2.23,3.72-3.56,3.72s-3.44-.49-3.44-3.76l0-8.62-1.87,0V134c0,2.38,1.38,4.93,5.27,4.93,4.07,0,5.52-2.68,5.52-5.18l0-8.89Z"/><path class="cls-2" d="M370.26,124.88l-11.11,0,0,1.66,4.59,0,0,12h1.84a0,0,0,0,0,0,0l0-12,4.65,0Z"/><path class="cls-2" d="M378.65,124.52c-5.28,0-6.68,4.53-6.68,7.22s1.41,7.21,6.68,7.21,6.68-4.54,6.68-7.21-1.41-7.22-6.68-7.22m0,12.74c-2.83,0-4.73-2.22-4.73-5.53s1.9-5.53,4.73-5.53,4.72,2.22,4.72,5.53-1.9,5.53-4.72,5.53"/><path class="cls-2" d="M402.07,124.88l-6.17,0,0,13.68h1.84a0,0,0,0,0,0,0l0-5.73h4.3a3.83,3.83,0,0,0,4.08-4.08,3.76,3.76,0,0,0-4.08-3.87m-.63,6.31-3.64,0v-4.71h3.72c1.77,0,2.67.76,2.67,2.25s-.9,2.43-2.75,2.43"/><path class="cls-2" d="M415.85,124.52c-5.27,0-6.68,4.53-6.68,7.22s1.41,7.21,6.68,7.21,6.68-4.54,6.68-7.21-1.41-7.22-6.68-7.22m0,12.74c-2.82,0-4.72-2.22-4.72-5.53s1.9-5.53,4.72-5.53,4.73,2.22,4.73,5.53-1.9,5.53-4.73,5.53"/><path class="cls-2" d="M433.42,131.12l-3.9-.89c-.74-.18-1.6-.53-1.6-1.71,0-2.06,1.94-2.37,3.09-2.37.7,0,2.85.18,3.3,2.2a3.35,3.35,0,0,1,.07.46.93.93,0,0,1,0,.12l1.7,0h.06c-.06-1.09-.22-4.38-5.35-4.38-3.48,0-4.72,2.29-4.72,4.25,0,1.17.51,2.67,2.93,3.24l2.8.65c2.32.55,2.89,1,2.89,2.39,0,2.05-2.48,2.27-3.55,2.27-.8,0-3.27-.2-3.69-2.51a3.87,3.87,0,0,1-.06-.6s0-.05,0-.08l-1.76,0a4.24,4.24,0,0,0,1.4,3.48c.47.43,1.46,1.32,4.14,1.32,1.26,0,5.37-.3,5.37-4.15,0-1.95-1-3.19-3.12-3.67"/><path class="cls-2" d="M449.86,124.88l-11.11,0,0,1.66,4.6,0,0,12h1.85a0,0,0,0,0,0,0l0-12,4.65,0Z"/><path class="cls-2" d="M458.24,124.52c-5.27,0-6.68,4.53-6.68,7.22s1.41,7.21,6.68,7.21,6.68-4.54,6.68-7.21-1.41-7.22-6.68-7.22m0,12.74c-2.82,0-4.72-2.22-4.72-5.53s1.9-5.53,4.72-5.53,4.73,2.22,4.73,5.53-1.9,5.53-4.73,5.53"/><path class="cls-3" d="M14.74,134S-2.18,109.26.24,82.42,23.6,7.24,124,0c0,0-54.75,23.35-52.89,74.9,1.61,44.57,37.32,70.88,37.32,70.88s-40.81,5.64-93.7-11.8"/><path class="cls-3" d="M88.09,34.52S76,69.48,125.64,112c0,0-6.17,16.89-13.51,29.39,0,0-23.69-19.5-31.22-46.46-5.17-18.52-5.32-39.54,7.18-60.43"/></g></g></svg>